HIERARCHY
ROOT hip
{
	OFFSET 0.000000 0.000000 0.000000 
	CHANNELS 6 Xposition Yposition Zposition Xrotation Zrotation Yrotation
	JOINT abdomen
	{
		OFFSET 0.000000 3.402643 0.000000 
		CHANNELS 3 Xrotation Zrotation Yrotation
		JOINT chest
		{
			OFFSET 0.000000 8.438565 -0.680529 
			CHANNELS 3 Xrotation Zrotation Yrotation
			JOINT neck
			{
				OFFSET 0.000000 10.207942 -0.272212 
				CHANNELS 3 Xrotation Zrotation Yrotation
				JOINT head
				{
					OFFSET 0.000000 3.130431 0.000000 
					CHANNELS 3 Xrotation Zrotation Yrotation
					End Site
					{
						OFFSET 0.000000 3.130435 0.000000 
					}
				}
			}
			JOINT lCollar
			{
				OFFSET 3.470700 6.669187 -0.816635 
				CHANNELS 3 Yrotation Zrotation Xrotation
				JOINT lShldr
				{
					OFFSET 3.198488 0.000000 0.000000 
					CHANNELS 3 Zrotation Yrotation Xrotation
					JOINT lForeArm
					{
						OFFSET 10.139888 0.000000 0.000000 
						CHANNELS 3 Yrotation Zrotation Xrotation
						JOINT lHand
						{
							OFFSET 8.370511 0.000000 0.000000 
							CHANNELS 3 Zrotation Yrotation Xrotation
							End Site
							{
								OFFSET 4.083176 0.000000 0.000000 
							}
						}
					}
				}
			}
			JOINT rCollar
			{
				OFFSET -3.470700 6.669187 -0.816635 
				CHANNELS 3 Yrotation Zrotation Xrotation
				JOINT rShldr
				{
					OFFSET -3.198488 0.000000 0.000000 
					CHANNELS 3 Zrotation Yrotation Xrotation
					JOINT rForeArm
					{
						OFFSET -10.139888 0.000000 0.000000 
						CHANNELS 3 Yrotation Zrotation Xrotation
						JOINT rHand
						{
							OFFSET -8.370511 0.000000 0.000000 
							CHANNELS 3 Zrotation Yrotation Xrotation
							End Site
							{
								OFFSET -4.083176 0.000000 0.000000 
							}
						}
					}
				}
			}
		}
	}
	JOINT lThigh
	{
		OFFSET 5.308129 -1.633274 1.361059 
		CHANNELS 3 Xrotation Zrotation Yrotation
		JOINT lShin
		{
			OFFSET -2.041588 -20.007561 0.000000 
			CHANNELS 3 Xrotation Zrotation Yrotation
			JOINT lFoot
			{
				OFFSET 0.000000 -19.190928 -1.224953 
				CHANNELS 3 Xrotation Yrotation Zrotation
				End Site
				{
					OFFSET 0.000000 -2.449906 4.627600 
				}
			}
		}
	}
	JOINT rThigh
	{
		OFFSET -5.308129 -1.633274 1.361059 
		CHANNELS 3 Xrotation Zrotation Yrotation
		JOINT rShin
		{
			OFFSET 2.041588 -20.007561 0.000000 
			CHANNELS 3 Xrotation Zrotation Yrotation
			JOINT rFoot
			{
				OFFSET 0.000000 -19.190928 -1.224953 
				CHANNELS 3 Xrotation Yrotation Zrotation
				End Site
				{
					OFFSET 0.000000 -2.449906 4.627600 
				}
			}
		}
	}
}
MOTION
Frames: 16
Frame Time: 0.033333
-8.852549 36.788696 119.503181 -61.628136 26.104816 -118.318588 36.923019 17.781569 2.896809 -20.839844 0.000000 0.000000 -26.849724 42.770344 -4.184856 -2.520860 -1.255023 0.218345 -4.754609 -0.109182 -0.002653 -63.760197 9.717752 -34.029476 -38.242065 15.496303 -25.925739 -14.717367 7.783352 -10.613981 4.754609 0.109182 -0.002672 20.527050 0.739304 -25.064745 2.680855 0.022241 10.859135 0.602144 13.213844 17.300629 -90.347382 3.232005 2.066094 45.582619 -4.192174 1.104492 -21.840393 3.707613 0.959829 -66.517258 -23.436504 13.458001 75.262489 -18.847208 4.989564 -53.541050 1.914479 -11.275091 
-7.445261 37.842129 118.587341 -60.276691 29.121113 -105.745262 32.194157 19.025480 11.621615 -20.839844 0.000000 0.000000 -26.085859 39.404350 3.917611 -2.520860 -1.255023 0.218345 -4.754609 -0.109182 -0.002653 -54.841171 22.982969 -37.053791 -50.510677 17.024132 -24.296959 -15.249205 4.479473 -15.725911 4.754609 0.109182 -0.002672 18.339426 7.612249 -25.246721 19.131487 0.249960 13.403909 4.867666 9.466656 19.402519 -76.464607 6.025351 -2.019855 42.829044 -0.188113 0.540744 -21.189535 7.999378 2.318895 -64.562958 -32.097328 10.119916 72.787453 -13.875375 4.560340 -52.179256 1.967522 -12.262918 
-6.236475 39.567745 117.651680 -60.349693 28.257145 -92.011688 27.209641 20.894060 20.509748 -20.839844 0.000000 0.000000 -24.495699 33.493484 16.609987 -2.520860 -1.255023 0.218345 -4.754609 -0.109182 -0.002653 -37.056923 32.807468 -34.794987 -67.688148 14.898634 -21.555641 -9.477812 3.401642 -22.897434 4.754609 0.109182 -0.002672 15.462090 9.686824 -24.375467 39.062588 1.878328 16.907169 10.058700 4.627796 21.355568 -61.090866 11.805759 -2.498143 37.214169 0.257952 3.335186 -18.354227 13.702963 1.583337 -57.068325 -46.326801 3.929594 67.932281 -8.318151 6.114872 -49.296902 4.383131 -11.931324 
-5.388146 42.160473 116.500771 -64.813156 24.517208 -76.372009 22.273069 22.952795 25.548136 -20.839844 0.000000 0.000000 -23.616142 25.355276 34.674545 -2.520860 -1.255023 0.218345 -4.754609 -0.109182 -0.002653 -18.285620 43.865551 -29.734184 -91.123695 11.978708 -19.016777 5.219024 6.103617 -28.273952 4.754609 0.109182 -0.002672 12.136011 9.961323 -23.154877 56.076717 5.466912 19.828873 14.316393 2.939167 23.920261 -45.793346 14.695237 -1.241402 30.812185 -0.240236 3.956288 -13.289373 15.229869 -0.480588 -29.229361 -63.875717 -17.482599 57.270290 -2.887481 7.302948 -43.042519 6.036965 -10.646199 
-4.911934 45.466999 114.876190 -74.132828 21.125948 -58.399006 16.759094 22.976307 25.311951 -20.839844 0.000000 0.000000 -22.869354 15.851119 54.648495 -2.520860 -1.255023 0.218345 -4.754609 -0.109182 -0.002653 -10.493684 48.348194 -32.467583 -104.921547 19.075270 -12.986993 10.681042 10.436991 -25.676149 4.754609 0.109182 -0.002672 13.293682 8.480398 -20.918823 72.792946 8.787885 20.617422 19.140585 2.672975 26.881678 -34.114014 15.124119 -0.753267 27.343716 -0.093166 1.744574 -11.564815 13.266489 -0.853891 38.599396 -61.718204 -70.087326 35.270596 2.117168 3.387568 -27.207392 2.257480 -9.803988 
-4.428621 48.316109 112.867302 -85.837807 20.846949 -40.129692 10.943428 14.785540 24.784489 -20.839844 0.000000 0.000000 -22.552530 10.262752 66.921951 -2.520860 -1.255023 0.218345 -4.754609 -0.109182 -0.002653 -7.200216 46.922665 -35.714203 -112.250763 23.637434 -6.294107 14.749017 13.163739 -21.350672 4.754609 0.109182 -0.002672 22.934092 3.190059 -17.298380 85.250496 9.790662 20.495667 23.918200 3.814369 30.171173 -30.851490 16.958952 -1.182233 28.730951 1.155988 1.536266 -11.947666 15.533022 -1.711804 72.615021 -32.218117 -72.939590 -5.268226 3.394046 -13.556935 13.791644 -5.660163 -3.275073 
-3.749352 49.762486 110.890900 -96.148521 23.764177 -22.151857 10.384224 3.009201 26.518778 -20.839844 0.000000 0.000000 -25.120293 7.696082 73.623398 -2.520860 -1.255023 0.218345 -4.754609 -0.109182 -0.002653 -7.063707 37.764713 -37.316063 -111.982140 22.992926 -2.543227 17.871742 14.008245 -14.653467 4.754609 0.109182 -0.002672 29.572622 -2.088378 -13.493384 89.029678 12.993349 20.126226 19.437428 5.732996 30.700081 -38.715324 19.382502 -2.228660 31.230757 2.229711 4.974768 -9.248756 21.852816 -2.511727 84.017326 -18.050926 -56.292110 -5.198685 3.289353 -17.178856 39.640442 -9.065476 -3.940599 
-3.226440 50.893097 108.856125 -103.682869 28.174099 -0.215979 11.772243 -3.064779 22.931492 -20.839844 0.000000 0.000000 -28.984682 3.024043 80.084007 -2.520860 -1.255023 0.218345 -4.754609 -0.109182 -0.002653 -7.148192 21.686087 -35.378853 -99.042809 16.515024 -4.769483 18.074837 11.917910 -8.797961 4.754609 0.109182 -0.002672 30.000422 -2.879303 -9.513512 81.962921 18.567310 22.902662 8.434345 8.159220 30.720169 -53.053398 16.493401 -1.886197 30.375256 -0.083563 7.725141 -7.669048 20.928576 0.737990 86.840210 -0.656381 -15.717348 -4.897388 2.927034 -34.623440 61.535030 -4.099451 -6.294401 
-3.021835 51.838402 106.682739 -108.067429 33.277142 17.909691 13.024650 -8.612941 20.766621 -20.839844 0.000000 0.000000 -32.198486 -2.651439 83.968483 -2.520860 -1.255023 0.218345 -4.754609 -0.109182 -0.002653 -12.407522 -1.199270 -35.665791 -76.086151 12.601296 -6.184667 7.881742 4.495424 -3.937384 4.754609 0.109182 -0.002672 36.225571 -2.521757 -7.474380 65.995483 17.935360 29.959139 2.861706 10.783834 32.795727 -65.985970 11.338046 0.905765 27.318651 -3.665039 10.556921 171.921753 162.864594 -177.755554 68.556091 -3.186399 -19.214994 41.986061 22.503675 -16.341423 50.241192 -3.136491 -6.541935 
-3.118309 52.839039 104.259087 -110.569321 37.602768 30.685555 14.080450 -12.813668 20.002050 -20.839844 0.000000 0.000000 -34.725178 -7.223842 84.692337 -2.520860 -1.255023 0.218345 -4.754609 -0.109182 -0.002653 -21.297682 -16.529629 -34.412960 -55.884991 11.039224 -7.181459 0.563890 -2.654523 0.805338 4.754609 0.109182 -0.002672 44.962704 -0.709369 -6.828759 45.758781 12.191848 35.232788 0.210325 13.034063 34.088898 -79.601837 9.783827 2.290060 28.586124 -5.281520 12.205306 -190.719284 164.228699 -177.537766 50.613541 -7.959640 -21.782772 73.612633 21.003403 -4.504651 46.559872 -6.077099 -2.111851 
-3.267052 53.306606 101.741997 -113.894142 41.423016 38.600956 16.703690 -14.582870 17.665472 -20.839844 0.000000 0.000000 -36.369389 -8.401636 82.923294 -2.520860 -1.255023 0.218345 -4.754609 -0.109182 -0.002653 -29.645906 -25.627083 -34.189819 -41.628231 11.969966 -10.184905 -3.123461 -5.853575 5.245828 4.754609 0.109182 -0.002672 52.276859 7.816617 -6.369503 16.916447 3.964067 38.086082 -3.283871 19.154669 37.333450 -92.341385 12.743788 0.314398 31.165850 -4.862791 11.565127 -13.511527 16.121183 3.080744 34.201660 -19.793919 -26.571863 89.538399 10.670552 0.538070 42.032104 -7.763774 -5.411010 
-3.355888 53.055309 99.226448 -120.851509 45.387558 42.100677 21.469324 -13.998101 13.346745 -20.839844 0.000000 0.000000 -35.442127 -6.212182 78.581886 -2.520860 -1.255023 0.218345 -4.754609 -0.109182 -0.002653 -36.086498 -32.371712 -36.085659 -31.935379 14.072053 -15.881091 -6.403738 -5.760563 9.349369 4.754609 0.109182 -0.002672 57.264366 11.570402 -5.765612 2.289579 0.476736 37.547592 -4.222906 20.112036 39.714611 -102.029503 17.714735 -4.345544 32.504211 -3.017462 9.630556 -15.795512 17.245447 2.378984 19.089048 -31.317312 -26.115702 89.482300 1.341909 -1.138206 34.184036 -10.211587 -9.064396 
-3.338631 52.104927 96.886559 -133.490097 49.398361 41.351112 27.457104 -11.262982 7.990099 -20.839844 0.000000 0.000000 -32.058891 -3.215801 73.386955 -2.520860 -1.255023 0.218345 -4.754609 -0.109182 -0.002653 -39.980007 -38.121880 -38.072262 -24.076931 14.702525 -21.424149 -8.191414 -3.371528 12.483212 4.754609 0.109182 -0.002672 62.669914 9.182302 -6.029002 2.319448 0.428531 34.869209 -2.621882 16.467937 39.364315 -108.628052 22.489628 -9.206193 31.055853 -1.417541 8.165628 -17.171831 18.287491 3.148631 9.265397 -37.712143 -24.140615 78.147827 -2.399329 -4.474696 24.038469 -14.825424 -9.532526 
-3.186829 50.600670 94.686775 -151.609161 53.557301 34.384373 33.606762 -8.577978 3.162945 -20.839844 0.000000 0.000000 -28.102171 -0.688549 69.982086 -2.520860 -1.255023 0.218345 -4.754609 -0.109182 -0.002653 -42.163609 -40.593834 -23.868553 -13.438699 17.749731 -18.873104 -8.071146 -3.848154 -7.171457 4.754609 0.109182 -0.002672 69.378662 6.776182 -6.380415 2.413469 0.362870 29.913496 -2.121172 14.476504 36.116932 -112.998047 28.514181 -13.466316 25.949858 -1.428228 8.101204 -17.071457 18.218584 6.800271 7.213531 -41.842014 -26.736170 60.301815 -0.691870 -7.827199 16.779160 -19.593149 -9.749943 
-2.905579 48.425247 92.366165 -174.792221 57.020779 18.958208 39.481850 -7.050304 -0.394788 -20.839844 0.000000 0.000000 -24.253769 1.210147 69.877472 -2.520860 -1.255023 0.218345 -4.754609 -0.109182 -0.002653 -45.376701 -38.913174 -8.701252 -7.035719 17.403524 -13.447350 -7.984848 -5.434187 -30.106720 4.754609 0.109182 -0.002672 75.077728 4.251575 -6.621245 2.566604 0.271864 22.408264 -2.240195 12.047097 27.409487 -114.294464 37.245644 -16.993763 15.309775 -2.931379 9.833964 -15.770555 16.781166 10.157874 10.886841 -43.758495 -33.747990 38.358551 4.316375 -12.398024 9.798798 -20.119940 -13.951292 
-2.420746 45.597973 89.854683 159.213852 56.973736 -1.809945 44.307186 -6.180510 -3.067323 -20.839844 0.000000 0.000000 -20.148266 2.952554 71.454956 -2.520860 -1.255023 0.218345 -4.754609 -0.109182 -0.002653 -50.081352 -34.220921 -2.682885 -5.930791 16.529093 -11.131754 -7.815624 -5.846395 -36.554688 4.754609 0.109182 -0.002672 77.544327 2.568928 -7.365523 2.676869 0.091115 12.715802 -2.331171 8.266560 14.677036 -109.350273 45.261982 -16.093109 -0.728948 -3.719640 13.112050 -13.197492 13.165645 12.487823 13.516139 -39.936062 -37.511650 16.064974 6.911751 -18.318657 7.685717 -14.886739 -15.739079 
